<?xml version="1.0" encoding="iso-8859-1"?>
<!-- Generator: Adobe Illustrator 19.0.0, SVG Export Plug-In . SVG Version: 6.00 Build 0)  -->
<svg xmlns="http://www.w3.org/2000/svg" xmlns:xlink="http://www.w3.org/1999/xlink" version="1.1" id="Capa_1" x="0px" y="0px" viewBox="0 0 489.776 489.776" style="enable-background:new 0 0 489.776 489.776;" xml:space="preserve" width="512px" height="512px">
<g>
	<g>
		<path d="M484.16,453.108c-42.112,5.44-84.48,5.432-125.944,0.008c-0.792-0.104-1.528-0.216-2.304-0.32    c0.768-2.744,1.264-5.552,1.264-8.448c0-17.648-14.352-32-32-32c-15.656,0-28.664,11.32-31.416,26.192    c-6.616-2.304-12.4-4.592-17.76-6.72c-19.184-7.592-34.336-13.608-63.608-10.736c-15.024,1.472-27.872,4.68-39.888,8.76    c-3.016-14.536-15.912-25.496-31.328-25.496c-17.648,0-32,14.352-32,32c0,6.2,1.832,12.096,5.064,17.136    c-20.52,7.648-44.288,13.952-77.448,15.56c-10.416,0.512-20.928,0.512-31.216,0l-0.792,15.984c5.408,0.264,10.872,0.4,16.344,0.4    c5.472,0,10.968-0.136,16.44-0.4c51.208-2.496,82.272-15.952,109.664-27.848c6.808-2.936,13.472-5.816,20.272-8.464    c14.104-5.496,28.8-9.984,46.456-11.712c25.4-2.504,37.648,2.352,56.152,9.688c16.496,6.536,36.624,14.488,72.384,20.272    c0.072,0.008,0.136,0.024,0.208,0.04c0.016,0,0.032,0,0.048,0c4.256,0.688,8.68,1.344,13.392,1.968    c42.832,5.624,86.592,5.616,130.064,0.008L484.16,453.108z M141.184,442.38c-0.128,0.056-0.248,0.104-0.376,0.16    c-3.68,1.592-7.408,3.192-11.208,4.8c-2.816-2.944-4.424-6.84-4.424-10.992c0-8.824,7.176-16,16-16    c8.568,0,15.576,6.768,15.984,15.24C151.816,437.764,146.536,440.052,141.184,442.38z M339.96,450.316c0,0-0.008,0-0.016,0    c-11.048-1.944-21.192-4.224-30.744-6.92c0.496-8.384,7.472-15.048,15.976-15.048c8.824,0,16,7.176,16,16    C341.176,446.636,340.672,448.636,339.96,450.316z" fill="#FFFFFF"/>
	</g>
</g>
<g>
	<g>
		<path d="M489.776,362.892l-9.192-13.096c-12.688,8.904-26.024,16.112-39.856,21.664c-0.032,0.016-0.072,0.008-0.104,0.024    c-4.696,1.88-9.312,3.512-13.936,4.96c-0.552,0.168-1.104,0.336-1.664,0.504c-4.504,1.368-9.008,2.584-13.568,3.584    c-0.008,0-0.016,0-0.016,0c-9.112,1.992-19.528,2.912-30.264,3.152v-51.336h104v-16h-104v-58.624l67.832,41.456    c1.28,0.776,2.72,1.168,4.168,1.168c1.584,0,3.168-0.472,4.52-1.4c2.6-1.792,3.912-4.928,3.344-8.032l-15.992-87.96    c0-0.016-0.008-0.024-0.008-0.04l-16-88l-16-88c-0.688-3.8-4-6.568-7.864-6.568h-24v-16h-16v16h-24    c-3.864,0-7.176,2.768-7.872,6.568l-16,88l-16,88c0,0.016-0.008,0.024-0.008,0.04l-15.992,87.96    c-0.56,3.104,0.744,6.24,3.344,8.032c2.6,1.784,6.008,1.864,8.696,0.224l67.832-41.448v58.624h-128v-25.472    c9.288-3.312,16-12.112,16-22.528h-16c0,4.416-3.592,8-8,8s-8-3.584-8-8c0-4.416,3.592-8,8-8c4.416,0,8-3.576,8-8v-36.152l37-29.6    c1.536-1.232,2.568-2.992,2.896-4.936l8-48c0.216-1.28,0.112-2.6-0.304-3.84l-8-24c-0.672-2.008-2.112-3.672-4.008-4.624l-16-8    c-3.96-1.968-8.76-0.376-10.736,3.576l-12.728,25.472L56.088,52.892c-3.864-1.496-8.224,0.184-10.072,3.88l-16,32    c-1.008,2.032-1.12,4.392-0.288,6.496c0.832,2.104,2.512,3.776,4.64,4.568l10.808,4.056v156.456h-24    c-3.984,0-7.352,2.928-7.92,6.864L6.24,316.348H5.176v16h8h80h24h64h184v51.224c-13.84-0.456-27.504-1.728-39.008-3.16    c-28.944-3.6-46.656-9.504-62.28-14.704c-8.92-2.976-17.248-5.72-26.384-7.536c-0.008,0-0.016-0.008-0.024-0.008    c-0.016,0-0.032-0.008-0.048-0.008c-4.936-0.976-10.112-1.688-15.744-2.008c-1.616-0.088-3.28-0.088-4.928-0.112    c-1.112-0.016-2.176-0.08-3.328-0.064c-2.888,0.04-5.84,0.168-8.88,0.4c-3.136,0.248-6.2,0.6-9.208,1.04    c-1.776,0.256-3.416,0.592-5.088,0.912c-1.152,0.216-2.328,0.392-3.464,0.632c-2.816,0.608-5.504,1.288-8.064,2.024    c-0.016,0-0.032,0.008-0.04,0.008c-2.744,0.792-5.352,1.664-7.84,2.576c-0.088,0.032-0.176,0.056-0.264,0.088    c-0.048,0.016-0.088,0.056-0.136,0.072c-8.792,3.248-16.184,7.088-23.104,10.704c-13.928,7.272-25.952,13.56-46.296,13.928    c-6,0.152-12.032-0.4-18.08-1.352c-2.936-0.464-5.872-1.056-8.792-1.76c-0.2-0.048-0.408-0.104-0.608-0.16    c-2.992-0.744-5.976-1.6-8.92-2.592c-0.024-0.008-0.048,0-0.064-0.008c-18.032-6.088-36.168-16.832-54.2-32.216L0,362.436    c15.856,13.536,31.896,23.76,48.008,30.752c-1.8,3.376-2.832,7.168-2.832,11.16c0,13.232,10.768,24,24,24s24-10.768,24-24    c0-0.104-0.024-0.2-0.024-0.304c2.016,0.104,4.032,0.32,6.048,0.32c0.704,0,1.416-0.008,2.12-0.016    c24.112-0.44,39.008-8.224,53.416-15.752c4.072-2.128,8.224-4.264,12.624-6.28c5.272,12.752,20.136,22.032,37.816,22.032    c20.32,0,36.968-12.232,39.488-27.952c4.536,1.312,9.152,2.824,14.16,4.496c15.52,5.168,34.84,11.608,65.36,15.4    c12.04,1.504,26.376,2.824,40.992,3.28v28.776h16v-28.64c5.64-0.12,11.144-0.496,16.544-1.024    c-0.224,1.888-0.544,3.76-0.544,5.664c0,22.056,14.352,40,32,40s32-17.944,32-40c0-7.96-2.032-15.464-5.456-21.912    C467.472,377.052,478.856,370.556,489.776,362.892z M431.392,217.26l10.72,58.952L388.52,243.46L431.392,217.26z M415.68,130.836    l9.848,54.184l-39.408-30.96L415.68,130.836z M408.304,90.308l-24.312-26.76L400.2,45.716L408.304,90.308z M381.176,36.348h5.912    l-5.912,6.504V36.348z M381.176,84.244l21.912,24.104h-21.912V84.244z M381.176,124.348h16.872l-16.872,13.256V124.348z     M381.176,170.524l32.872,25.824h-32.872V170.524z M381.176,212.348h27.568l-27.568,16.848V212.348z M57.064,70.46l177.2,69.344    c3.856,1.488,8.216-0.176,10.072-3.872l12.424-24.84l5.88,2.936l6.328,18.976L261.8,176.02l-32.016,25.616l-6.856-6.856    l13.424-26.84c1.008-2.032,1.12-4.392,0.288-6.496c-0.832-2.104-2.512-3.776-4.64-4.568L161.664,130.5    c-0.008,0-0.016-0.008-0.032-0.016l-18.456-6.936c-0.008,0-0.016,0-0.024,0L48.304,87.98L57.064,70.46z M162.56,236.348h-26.768    l11.312-94.232l1.192,0.448l3.152,1.184L162.56,236.348z M22.4,316.348l5.712-40H78.24l5.712,40H22.4z M110.08,316.348h-9.968    l-7.016-49.136c-0.568-3.936-3.936-6.864-7.92-6.864h-24V109.892l70.504,26.44L110.08,316.348z M126.192,316.348l7.68-64h30.6    l7.68,64H126.192z M221.176,316.348h-32.904l-19.952-166.28l49.728,18.648l-12.024,24.056c-1.536,3.08-0.936,6.8,1.504,9.232    l13.648,13.656v30.056c-9.312,3.304-16,12.2-16,22.632c0,10.416,6.712,19.216,16,22.528V316.348z M69.176,412.348    c-4.408,0-8-3.584-8-8c0-2.072,0.808-4.008,2.216-5.464c0.544,0.168,1.104,0.248,1.648,0.408c3.736,1.08,7.48,2.024,11.224,2.752    c0.2,0.04,0.4,0.112,0.6,0.144c0.192,0.656,0.312,1.368,0.312,2.16C77.176,408.764,73.584,412.348,69.176,412.348z     M205.176,388.348c-10.768,0-20.152-5.016-23.064-11.672c0.112-0.032,0.216-0.072,0.336-0.112c3.192-0.952,6.44-1.704,9.76-2.352    c0.912-0.176,1.84-0.344,2.784-0.512c3.488-0.592,7.04-1.088,10.816-1.384c3.768-0.304,7.352-0.368,10.88-0.312    c0.64,0.008,1.288,0.016,1.912,0.04c3.576,0.128,7.08,0.4,10.56,0.912C228.664,381.356,217.88,388.348,205.176,388.348z     M346.144,45.708l16.216,17.84L338.04,90.3L346.144,45.708z M330.672,130.836l29.552,23.224l-39.408,30.96L330.672,130.836z     M304.24,276.204l10.72-58.952l42.872,26.2L304.24,276.204z M365.176,229.196l-27.568-16.848h27.568V229.196z M365.176,196.348    h-32.872l32.872-25.824V196.348z M365.176,137.604l-16.872-13.256h16.872V137.604z M365.176,108.348h-21.912l21.912-24.104    V108.348z M365.176,42.852l-5.912-6.504h5.912V42.852z M429.176,428.348c-8.672,0-16-10.992-16-24c0-2.72,0.344-5.408,1.032-8.04    c0.232-0.048,0.456-0.096,0.664-0.144c0.008,0,0.016,0,0.016,0c4.072-0.896,8.104-1.952,12.104-3.104    c0.784-0.224,1.576-0.472,2.36-0.712c3.856-1.152,7.68-2.416,11.464-3.8c0.056-0.016,0.112-0.032,0.168-0.048    c2.672,4.376,4.192,10,4.192,15.848C445.176,417.356,437.848,428.348,429.176,428.348z" fill="#FFFFFF"/>
	</g>
</g>
<g>
	<g>
		<path d="M5.176,412.348v16c15.544,0,23.576,5.736,24,7.448c-0.424,1.816-8.456,7.552-24,7.552v16c23.176,0,40-9.88,40-23.504    C45.176,422.22,28.352,412.348,5.176,412.348z" fill="#FFFFFF"/>
	</g>
</g>
<g>
	<g>
		<rect x="261.176" y="396.348" width="16" height="16" fill="#FFFFFF"/>
	</g>
</g>
<g>
</g>
<g>
</g>
<g>
</g>
<g>
</g>
<g>
</g>
<g>
</g>
<g>
</g>
<g>
</g>
<g>
</g>
<g>
</g>
<g>
</g>
<g>
</g>
<g>
</g>
<g>
</g>
<g>
</g>
</svg>
